{
  "accessors": [
    {
      "bufferView": 1,
      "componentType": 5126,
      "count": 65532,
      "max": [
        0.7231850028038025,
        0.4723680019378662,
        0.6591060161590576
      ],
      "min": [
        0.28283798694610596,
        0.0,
        2.4000000848900527e-05
      ],
      "type": "VEC3"
    },
    {
      "bufferView": 1,
      "byteOffset": 786384,
      "componentType": 5126,
      "count": 65532,
      "max": [
        0.9999403953552246,
        0.9999896883964539,
        0.9999997615814209
      ],
      "min": [
        -0.9999485015869141,
        -0.9999975562095642,
        -0.9999345541000366
      ],
      "type": "VEC3"
    },
    {
      "bufferView": 0,
      "componentType": 5125,
      "count": 65532,
      "type": "SCALAR"
    },
    {
      "bufferView": 1,
      "byteOffset": 1572768,
      "componentType": 5126,
      "count": 65532,
      "max": [
        0.673704981803894,
        0.4703519940376282,
        0.9163669943809509
      ],
      "min": [
        0.23421500623226166,
        0.02690500020980835,
        0.17832499742507935
      ],
      "type": "VEC3"
    },
    {
      "bufferView": 1,
      "byteOffset": 2359152,
      "componentType": 5126,
      "count": 65532,
      "max": [
        0.9999999403953552,
        0.9992677569389343,
        0.9980322122573853
      ],
      "min": [
        -0.9999930262565613,
        -0.999718964099884,
        -0.9893754124641418
      ],
      "type": "VEC3"
    },
    {
      "bufferView": 0,
      "byteOffset": 262128,
      "componentType": 5125,
      "count": 65532,
      "type": "SCALAR"
    },
    {
      "bufferView": 1,
      "byteOffset": 3145536,
      "componentType": 5126,
      "count": 65532,
      "max": [
        0.786221981048584,
        0.4791170060634613,
        1.1759740114212036
      ],
      "min": [
        0.23482799530029297,
        0.16227799654006958,
        0.484050989151001
      ],
      "type": "VEC3"
    },
    {
      "bufferView": 1,
      "byteOffset": 3931920,
      "componentType": 5126,
      "count": 65532,
      "max": [
        0.9998637437820435,
        0.9997655749320984,
        0.9999812841415405
      ],
      "min": [
        -0.9999823570251465,
        -0.9999463558197021,
        -0.9998740553855896
      ],
      "type": "VEC3"
    },
    {
      "bufferView": 0,
      "byteOffset": 524256,
      "componentType": 5125,
      "count": 65532,
      "type": "SCALAR"
    },
    {
      "bufferView": 1,
      "byteOffset": 4718304,
      "componentType": 5126,
      "count": 65532,
      "max": [
        0.6866430044174194,
        0.46005699038505554,
        1.4230339527130127
      ],
      "min": [
        0.2026589959859848,
        0.13364900648593903,
        0.8827750086784363
      ],
      "type": "VEC3"
    },
    {
      "bufferView": 1,
      "byteOffset": 5504688,
      "componentType": 5126,
      "count": 65532,
      "max": [
        0.9998684525489807,
        0.999945878982544,
        0.9998976588249207
      ],
      "min": [
        -0.9999665021896362,
        -0.9999890923500061,
        -0.9999764561653137
      ],
      "type": "VEC3"
    },
    {
      "bufferView": 0,
      "byteOffset": 786384,
      "componentType": 5125,
      "count": 65532,
      "type": "SCALAR"
    },
    {
      "bufferView": 1,
      "byteOffset": 6291072,
      "componentType": 5126,
      "count": 65532,
      "max": [
        0.929652988910675,
        0.4192180037498474,
        1.5865360498428345
      ],
      "min": [
        0.0,
        0.1167529970407486,
        1.097533941268921
      ],
      "type": "VEC3"
    },
    {
      "bufferView": 1,
      "byteOffset": 7077456,
      "componentType": 5126,
      "count": 65532,
      "max": [
        0.9998070001602173,
        0.9999231100082397,
        0.9617654085159302
      ],
      "min": [
        -0.9999011754989624,
        -0.9994460940361023,
        -0.9989917874336243
      ],
      "type": "VEC3"
    },
    {
      "bufferView": 0,
      "byteOffset": 1048512,
      "componentType": 5125,
      "count": 65532,
      "type": "SCALAR"
    },
    {
      "bufferView": 1,
      "byteOffset": 7863840,
      "componentType": 5126,
      "count": 65532,
      "max": [
        0.6679589748382568,
        0.4578799903392792,
        1.516103982925415
      ],
      "min": [
        0.11775899678468704,
        0.05572199821472168,
        0.24802599847316742
      ],
      "type": "VEC3"
    },
    {
      "bufferView": 1,
      "byteOffset": 8650224,
      "componentType": 5126,
      "count": 65532,
      "max": [
        0.999997615814209,
        0.9999064207077026,
        0.9998612403869629
      ],
      "min": [
        -0.9999361038208008,
        -0.9995836019515991,
        -0.9904844760894775
      ],
      "type": "VEC3"
    },
    {
      "bufferView": 0,
      "byteOffset": 1310640,
      "componentType": 5125,
      "count": 65532,
      "type": "SCALAR"
    },
    {
      "bufferView": 1,
      "byteOffset": 9436608,
      "componentType": 5126,
      "count": 65532,
      "max": [
        0.69439297914505,
        0.4723680019378662,
        0.7730759978294373
      ],
      "min": [
        0.282710999250412,
        0.0,
        0.0
      ],
      "type": "VEC3"
    },
    {
      "bufferView": 1,
      "byteOffset": 10222992,
      "componentType": 5126,
      "count": 65532,
      "max": [
        0.9999867677688599,
        0.9998948574066162,
        0.9999997615814209
      ],
      "min": [
        -0.9999767541885376,
        -0.9999783039093018,
        -0.9995369911193848
      ],
      "type": "VEC3"
    },
    {
      "bufferView": 0,
      "byteOffset": 1572768,
      "componentType": 5125,
      "count": 65532,
      "type": "SCALAR"
    },
    {
      "bufferView": 1,
      "byteOffset": 11009376,
      "componentType": 5126,
      "count": 65532,
      "max": [
        0.7231850028038025,
        0.46134600043296814,
        0.6381009817123413
      ],
      "min": [
        0.2866629958152771,
        0.008821999654173851,
        0.0005339999916031957
      ],
      "type": "VEC3"
    },
    {
      "bufferView": 1,
      "byteOffset": 11795760,
      "componentType": 5126,
      "count": 65532,
      "max": [
        0.9999279975891113,
        0.9999969005584717,
        0.9999998211860657
      ],
      "min": [
        -0.9999939799308777,
        -0.9999262690544128,
        -0.9992302060127258
      ],
      "type": "VEC3"
    },
    {
      "bufferView": 0,
      "byteOffset": 1834896,
      "componentType": 5125,
      "count": 65532,
      "type": "SCALAR"
    },
    {
      "bufferView": 1,
      "byteOffset": 12582144,
      "componentType": 5126,
      "count": 65532,
      "max": [
        0.7307119965553284,
        0.47867700457572937,
        1.053609013557434
      ],
      "min": [
        0.23421500623226166,
        0.025750000029802322,
        0.26142099499702454
      ],
      "type": "VEC3"
    },
    {
      "bufferView": 1,
      "byteOffset": 13368528,
      "componentType": 5126,
      "count": 65532,
      "max": [
        0.9999393224716187,
        0.9999831318855286,
        0.9997194409370422
      ],
      "min": [
        -0.9999870657920837,
        -0.9999957084655762,
        -0.9833964109420776
      ],
      "type": "VEC3"
    },
    {
      "bufferView": 0,
      "byteOffset": 2097024,
      "componentType": 5125,
      "count": 65532,
      "type": "SCALAR"
    },
    {
      "bufferView": 1,
      "byteOffset": 14154912,
      "componentType": 5126,
      "count": 65532,
      "max": [
        0.7406499981880188,
        0.4791170060634613,
        1.1974300146102905
      ],
      "min": [
        0.23123499751091003,
        0.15163899958133698,
        0.5846779942512512
      ],
      "type": "VEC3"
    },
    {
      "bufferView": 1,
      "byteOffset": 14941296,
      "componentType": 5126,
      "count": 65532,
      "max": [
        0.9997565746307373,
        0.9999768137931824,
        0.9997965097427368
      ],
      "min": [
        -0.9999509453773499,
        -0.9999963045120239,
        -0.9422383904457092
      ],
      "type": "VEC3"
    },
    {
      "bufferView": 0,
      "byteOffset": 2359152,
      "componentType": 5125,
      "count": 65532,
      "type": "SCALAR"
    },
    {
      "bufferView": 1,
      "byteOffset": 15727680,
      "componentType": 5126,
      "count": 63984,
      "max": [
        0.6598470211029053,
        0.5337070226669312,
        1.5968049764633179
      ],
      "min": [
        0.18898700177669525,
        0.13364900648593903,
        0.931210994720459
      ],
      "type": "VEC3"
    },
    {
      "bufferView": 1,
      "byteOffset": 16495488,
      "componentType": 5126,
      "count": 63984,
      "max": [
        0.9998869895935059,
        0.9999538660049438,
        0.9993402361869812
      ],
      "min": [
        -0.9999741911888123,
        -0.9999489784240723,
        -0.9996667504310608
      ],
      "type": "VEC3"
    },
    {
      "bufferView": 0,
      "byteOffset": 2621280,
      "componentType": 5125,
      "count": 63984,
      "type": "SCALAR"
    }
  ],
  "asset": {
    "extras": {
      "author": "uptown (https://sketchfab.com/uptown)",
      "license": "CC-BY-4.0 (http://creativecommons.org/licenses/by/4.0/)",
      "source": "https://sketchfab.com/3d-models/lucy-532f4db9bcb14fed97c6c26da917e155",
      "title": "Lucy"
    },
    "generator": "Sketchfab-12.66.0",
    "version": "2.0"
  },
  "bufferViews": [
    {
      "buffer": 0,
      "byteLength": 2877216,
      "name": "floatBufferViews",
      "target": 34963
    },
    {
      "buffer": 0,
      "byteLength": 17263296,
      "byteOffset": 2877216,
      "byteStride": 12,
      "name": "floatBufferViews",
      "target": 34962
    }
  ],
  "buffers": [
    {
      "byteLength": 20140512,
      "uri": "scene.bin"
    }
  ],
  "materials": [
    {
      "doubleSided": true,
      "name": "Scene_-_Root",
      "pbrMetallicRoughness": {
        "baseColorFactor": [
          0.5,
          0.5,
          0.5,
          1.0
        ],
        "metallicFactor": 0.0,
        "roughnessFactor": 0.6
      }
    }
  ],
  "meshes": [
    {
      "name": "Object_0",
      "primitives": [
        {
          "attributes": {
            "NORMAL": 1,
            "POSITION": 0
          },
          "indices": 2,
          "material": 0,
          "mode": 4
        }
      ]
    },
    {
      "name": "Object_1",
      "primitives": [
        {
          "attributes": {
            "NORMAL": 4,
            "POSITION": 3
          },
          "indices": 5,
          "material": 0,
          "mode": 4
        }
      ]
    },
    {
      "name": "Object_2",
      "primitives": [
        {
          "attributes": {
            "NORMAL": 7,
            "POSITION": 6
          },
          "indices": 8,
          "material": 0,
          "mode": 4
        }
      ]
    },
    {
      "name": "Object_3",
      "primitives": [
        {
          "attributes": {
            "NORMAL": 10,
            "POSITION": 9
          },
          "indices": 11,
          "material": 0,
          "mode": 4
        }
      ]
    },
    {
      "name": "Object_4",
      "primitives": [
        {
          "attributes": {
            "NORMAL": 13,
            "POSITION": 12
          },
          "indices": 14,
          "material": 0,
          "mode": 4
        }
      ]
    },
    {
      "name": "Object_5",
      "primitives": [
        {
          "attributes": {
            "NORMAL": 16,
            "POSITION": 15
          },
          "indices": 17,
          "material": 0,
          "mode": 4
        }
      ]
    },
    {
      "name": "Object_6",
      "primitives": [
        {
          "attributes": {
            "NORMAL": 19,
            "POSITION": 18
          },
          "indices": 20,
          "material": 0,
          "mode": 4
        }
      ]
    },
    {
      "name": "Object_7",
      "primitives": [
        {
          "attributes": {
            "NORMAL": 22,
            "POSITION": 21
          },
          "indices": 23,
          "material": 0,
          "mode": 4
        }
      ]
    },
    {
      "name": "Object_8",
      "primitives": [
        {
          "attributes": {
            "NORMAL": 25,
            "POSITION": 24
          },
          "indices": 26,
          "material": 0,
          "mode": 4
        }
      ]
    },
    {
      "name": "Object_9",
      "primitives": [
        {
          "attributes": {
            "NORMAL": 28,
            "POSITION": 27
          },
          "indices": 29,
          "material": 0,
          "mode": 4
        }
      ]
    },
    {
      "name": "Object_10",
      "primitives": [
        {
          "attributes": {
            "NORMAL": 31,
            "POSITION": 30
          },
          "indices": 32,
          "material": 0,
          "mode": 4
        }
      ]
    }
  ],
  "nodes": [
    {
      "children": [
        1
      ],
      "matrix": [
        -1.0,
        -9.860761315262648e-32,
        4.440892098500626e-16,
        0.0,
        4.440892098500626e-16,
        -2.220446049250313e-16,
        1.0,
        0.0,
        0.0,
        1.0,
        2.220446049250313e-16,
        0.0,
        -6.186672544572502e-05,
        5.154572885196895e-19,
        -0.00232141325250268,
        1.0
      ],
      "name": "Sketchfab_model"
    },
    {
      "children": [
        2
      ],
      "matrix": [
        1.0,
        0.0,
        0.0,
        0.0,
        0.0,
        1.0,
        0.0,
        0.0,
        0.0,
        0.0,
        1.0,
        0.0,
        -0.4648529887199402,
        -0.26686298847198486,
        0.0,
        1.0
      ],
      "name": "f2d2320485334287878695a8f948d9af.dxf.cleaner"
    },
    {
      "children": [
        3
      ],
      "matrix": [
        1.0,
        0.0,
        0.0,
        0.0,
        0.0,
        1.0,
        0.0,
        0.0,
        0.0,
        0.0,
        1.0,
        0.0,
        -1.1280059830642841e-08,
        -1.1528015153583482e-08,
        0.0,
        1.0
      ],
      "name": "Layers"
    },
    {
      "children": [
        4,
        5,
        6,
        7,
        8,
        9,
        10,
        11,
        12,
        13,
        14
      ],
      "name": "0"
    },
    {
      "mesh": 0,
      "name": "Object_4"
    },
    {
      "mesh": 1,
      "name": "Object_5"
    },
    {
      "mesh": 2,
      "name": "Object_6"
    },
    {
      "mesh": 3,
      "name": "Object_7"
    },
    {
      "mesh": 4,
      "name": "Object_8"
    },
    {
      "mesh": 5,
      "name": "Object_9"
    },
    {
      "mesh": 6,
      "name": "Object_10"
    },
    {
      "mesh": 7,
      "name": "Object_11"
    },
    {
      "mesh": 8,
      "name": "Object_12"
    },
    {
      "mesh": 9,
      "name": "Object_13"
    },
    {
      "mesh": 10,
      "name": "Object_14"
    }
  ],
  "scene": 0,
  "scenes": [
    {
      "name": "Sketchfab_Scene",
      "nodes": [
        0
      ]
    }
  ]
}
